<svg width="123" height="123" viewBox="0 0 123 123" fill="none" xmlns="http://www.w3.org/2000/svg">
<g clip-path="url(#clip0_25_640)">
<path fill-rule="evenodd" clip-rule="evenodd" d="M55.9634 84.3462L54.9455 83.9853C56.0013 83.5588 56.9252 82.86 57.6229 81.9601C58.3207 81.0601 58.7673 79.9913 58.9174 78.8625C59.0674 77.7337 58.9155 76.5853 58.477 75.5344C58.0386 74.4834 57.3293 73.5676 56.4215 72.8801C57.1811 72.94 57.9326 72.8953 58.676 72.7458C60.1752 72.2528 61.4652 71.2704 62.339 69.9563C63.2129 68.6422 63.6199 67.0726 63.4946 65.4995C63.298 64.0903 62.7015 62.7671 61.7758 61.6866C60.85 60.6062 59.6339 59.8138 58.2715 59.4035C58.0987 59.3248 57.9119 59.281 57.7221 59.2748C57.5322 59.2685 57.343 59.2999 57.1654 59.3671C56.9877 59.4343 56.8251 59.536 56.6869 59.6663C56.5487 59.7966 56.4376 59.9529 56.3601 60.1263C56.2767 60.2953 56.2283 60.4793 56.2177 60.6675C56.2072 60.8556 56.2347 61.0439 56.2987 61.2211C56.3627 61.3984 56.4618 61.5609 56.59 61.6989C56.7183 61.8369 56.8731 61.9476 57.0452 62.0244C58.9984 63.0989 59.8596 64.3804 59.9864 65.6985C59.9459 66.3313 59.6947 66.9322 59.273 67.4057C58.8514 67.8791 58.2834 68.1979 57.6596 68.3111C56.6673 68.5203 55.6354 68.4347 54.6912 68.065C53.5729 67.7009 52.5166 67.169 51.5583 66.4873C50.6098 65.9085 49.7997 65.1287 49.1852 64.203C48.8179 63.6885 48.5777 63.0943 48.4844 62.4691C48.4449 62.0456 48.5638 61.6226 48.8179 61.2817C49.072 60.9407 49.4435 60.706 49.8605 60.6228C51.2326 60.2188 52.7026 60.3048 54.0182 60.8662C54.1636 60.9512 54.3243 61.0067 54.4912 61.0296C54.6581 61.0525 54.8278 61.0423 54.9908 60.9996C55.1537 60.9568 55.3066 60.8825 55.4408 60.7806C55.575 60.6788 55.6878 60.5516 55.7728 60.4061C55.8578 60.2607 55.9133 60.1 55.9362 59.9331C55.9591 59.7662 55.9489 59.5965 55.9062 59.4335C55.8634 59.2706 55.789 59.1177 55.6872 58.9835C55.5854 58.8493 55.4581 58.7365 55.3127 58.6515C54.2288 58.0079 53.0242 57.5939 51.7737 57.4353C50.5231 57.2766 49.2533 57.3766 48.043 57.7291C47.0161 58.0486 46.1171 58.6859 45.4755 59.549C44.8339 60.4121 44.4828 61.4566 44.4727 62.532C44.4058 64.198 44.8611 65.8432 45.775 67.2378C46.3462 67.9807 47.0042 68.6384 47.7491 69.2109C46.3295 68.9005 44.8552 68.9464 43.4577 69.3445C42.3868 69.6495 41.4421 70.2903 40.7626 71.1724C40.0831 72.0546 39.7047 73.1315 39.6831 74.2448C39.6566 75.5396 39.9449 76.8215 40.5231 77.9803L34.9239 75.6979C35.8837 75.0058 36.6451 74.0738 37.1318 72.9952C37.6185 71.9165 37.8135 70.7291 37.6974 69.5514C37.5008 68.1422 36.9043 66.819 35.9785 65.7386C35.0528 64.6581 33.8367 63.8658 32.4743 63.4555C32.3014 63.3767 32.1147 63.333 31.9249 63.3267C31.735 63.3205 31.5458 63.3518 31.3681 63.419C31.1905 63.4862 31.0279 63.5879 30.8897 63.7182C30.7514 63.8485 30.6404 64.0048 30.5629 64.1782C30.4795 64.3472 30.4311 64.5313 30.4205 64.7194C30.41 64.9075 30.4375 65.0958 30.5015 65.2731C30.5654 65.4503 30.6645 65.6128 30.7928 65.7508C30.9211 65.8888 31.0759 65.9995 31.2479 66.0763C32.0332 66.3516 32.7254 66.842 33.2454 67.4916C33.7655 68.1412 34.0925 68.9239 34.1892 69.7505C34.1556 70.3854 33.9069 70.9901 33.484 71.4649C33.0611 71.9398 32.4892 72.2565 31.8623 72.3631C30.87 72.5722 29.8382 72.4867 28.8939 72.1169C27.7757 71.7529 26.7193 71.2209 25.761 70.5393C24.8125 69.9604 24.0025 69.1807 23.388 68.2549C23.0207 67.7404 22.7805 67.1462 22.6872 66.521C22.6477 66.0976 22.7665 65.6746 23.0207 65.3336C23.2748 64.9926 23.6462 64.7579 24.0633 64.6747C25.4354 64.2707 26.9053 64.3568 28.2209 64.9181C28.3847 65.0242 28.5705 65.0914 28.7642 65.1147C28.9579 65.1379 29.1543 65.1166 29.3385 65.0524C29.5227 64.9881 29.6897 64.8826 29.8269 64.7439C29.9641 64.6052 30.0677 64.4369 30.13 64.2521C30.1922 64.0672 30.2113 63.8705 30.1859 63.6771C30.1605 63.4837 30.0912 63.2986 29.9833 63.1361C29.8755 62.9735 29.7319 62.8378 29.5636 62.7392C29.3952 62.6407 29.2066 62.5819 29.012 62.5674C27.9281 61.9238 26.7235 61.5098 25.473 61.3511C24.2224 61.1924 22.9526 61.2924 21.7423 61.6449C20.7154 61.9645 19.8164 62.6017 19.1748 63.4648C18.5332 64.328 18.1821 65.3725 18.172 66.4479C18.097 67.7964 18.4031 69.1356 19.0473 70.3232C17.3884 69.735 15.6604 69.4618 13.9214 69.0999L15.1111 65.7445C16.2206 62.6154 17.5185 59.5531 18.4262 56.3949L23.5929 40.1474L29.2356 26.1483L35.8952 8.56278C35.974 8.38992 36.0177 8.20319 36.024 8.01335C36.0302 7.82351 35.9988 7.6343 35.9317 7.45663C35.8645 7.27897 35.7628 7.11635 35.6325 6.97814C35.5022 6.83993 35.3459 6.72887 35.1724 6.65135C35.0035 6.56797 34.8194 6.51955 34.6313 6.509C34.4432 6.49846 34.2549 6.52599 34.0776 6.58996C33.9004 6.65393 33.7379 6.75301 33.5999 6.88128C33.4619 7.00955 33.3511 7.16435 33.2744 7.33643L25.2308 24.5161C23.9886 27.3011 22.558 30.0193 21.3159 32.8043C20.6208 34.7647 19.7153 36.4808 18.9777 38.6807C18.2401 40.8807 17.427 43.054 16.991 45.3609C16.1941 48.6857 15.548 52.064 14.7511 55.3889L11.2412 68.9984C11.2412 68.9984 10.9591 69.1954 11.0808 69.4508C11.0345 69.6111 11.0211 69.7792 11.0413 69.9449C11.0615 70.1106 11.1149 70.2705 11.1984 70.415C11.2819 70.5595 11.3937 70.6857 11.5272 70.786C11.6606 70.8863 11.8129 70.9586 11.9749 70.9986C17.1399 72.8299 22.1311 75.1513 27.2 77.373C30.5506 78.8157 34.0032 80.2096 37.4072 81.5015C43.2503 83.6533 49.2202 85.444 55.283 86.8635C55.471 86.9676 55.6794 87.0294 55.8938 87.0447C56.1081 87.0601 56.3232 87.0286 56.5241 86.9524C56.725 86.8762 56.9069 86.7572 57.0572 86.6037C57.2075 86.4501 57.3226 86.2656 57.3944 86.0631C57.4662 85.8606 57.493 85.6449 57.473 85.4309C57.4531 85.217 57.3867 85.0099 57.2787 84.8242C57.1706 84.6385 57.0234 84.4785 56.8473 84.3554C56.6712 84.2323 56.4704 84.1491 56.2588 84.1114L55.9634 84.3462ZM52.9077 80.0373C51.9154 80.2464 50.8836 80.1609 49.9393 79.7911C48.8071 79.4265 47.7377 78.8899 46.7687 78.2001C45.8202 77.6213 45.0102 76.8415 44.3956 75.9157C44.0283 75.4013 43.7881 74.8071 43.6948 74.1819C43.6948 73.7881 43.8298 73.4063 44.0774 73.1002C44.325 72.794 44.6701 72.5821 45.0551 72.4997C46.4256 72.0819 47.9004 72.1682 49.2128 72.7432C49.5083 72.9096 49.8578 72.9519 50.1845 72.8609C50.5112 72.7698 50.7884 72.5528 50.9553 72.2576L51.0221 72.0691L51.8515 72.3631C51.7627 72.6672 51.7863 72.9931 51.9178 73.2813C52.0494 73.5695 52.2802 73.8008 52.5681 73.9329C53.351 74.2122 54.0407 74.7037 54.5601 75.3526C55.0795 76.0015 55.4082 76.782 55.5094 77.607C55.4249 78.251 55.1192 78.8456 54.6445 79.2889C54.1699 79.7323 53.5559 79.9968 52.9077 80.0373Z" fill="#0B2715"/>
<path fill-rule="evenodd" clip-rule="evenodd" d="M36.0039 41.4117L33.3304 48.9517C32.3145 51.8169 31.6646 54.7271 30.7995 57.6458C30.7204 57.8197 30.6777 58.008 30.6741 58.199C30.6705 58.39 30.706 58.5798 30.7785 58.7566C30.851 58.9334 30.9589 59.0934 31.0956 59.2269C31.2323 59.3604 31.3949 59.4646 31.5733 59.5329C31.748 59.6063 31.9355 59.6445 32.1249 59.6453C32.3144 59.6461 32.5022 59.6095 32.6775 59.5376C32.8528 59.4657 33.0122 59.3599 33.1465 59.2263C33.2809 59.0927 33.3876 58.9339 33.4604 58.759C34.891 56.0408 36.346 53.3737 37.6258 50.6021C38.0536 49.3957 38.4947 48.1515 39.1888 46.9122C39.8828 45.6729 40.0576 44.4617 40.5255 43.1422C41.3543 40.8048 40.9834 41.0128 41.5349 38.6195C42.0864 36.2262 40.0201 35.1116 38.3301 36.1676C37.3665 37.8259 36.5865 39.5843 36.0039 41.4117ZM65.0875 24.8593C64.4191 26.7443 63.5245 28.5491 62.8452 30.3454C62.1659 32.1416 61.5085 34.1154 60.8802 35.8873C59.2302 41.4985 57.9328 47.1923 56.194 52.8145C56.09 53.0025 56.0282 53.2109 56.0128 53.4252C55.9975 53.6395 56.029 53.8546 56.1051 54.0555C56.1813 54.2565 56.3003 54.4384 56.4539 54.5887C56.6075 54.739 56.7919 54.854 56.9944 54.9258C57.197 54.9976 57.4127 55.0245 57.6266 55.0045C57.8406 54.9845 58.0476 54.9182 58.2333 54.8101C58.419 54.7021 58.579 54.5549 58.7021 54.3787C58.8252 54.2026 58.9085 54.0018 58.9461 53.7903C60.9916 49.3379 62.8353 44.8563 64.5062 40.1438L67.4337 31.8874C68.0887 30.0401 68.4688 28.0105 68.9706 26.2361C69.4724 24.4618 69.7699 22.7848 69.9303 22.3324C70.3615 20.2785 68.687 19.8545 67.1697 21.1414C66.359 22.3117 65.6618 23.5566 65.0875 24.8593ZM82.7816 48.4486C83.218 47.4734 83.5756 46.4649 83.851 45.4326C84.2739 44.4791 84.6215 43.4989 84.8936 42.4919C85.0839 41.7 85.2134 40.8946 85.281 40.0829C85.1054 39.4695 84.6966 38.9493 84.1421 38.6337C83.5877 38.3181 82.9317 38.2323 82.3146 38.3945C81.2823 38.7924 80.9882 39.6218 80.3939 40.9389C79.9674 41.9025 79.6154 42.8952 79.3379 43.9173C78.9903 44.8975 78.7182 45.9044 78.5214 46.9381C77.9614 49.1161 77.6927 49.2755 77.2968 51.4693C76.9009 53.6632 79.568 55.1181 80.8029 52.7125C81.537 51.3204 82.1965 49.8991 82.7816 48.4486Z" fill="#0B2715"/>
<path fill-rule="evenodd" clip-rule="evenodd" d="M86.3793 60.9241C86.1734 59.5184 85.5736 58.1998 84.6492 57.1209C83.7248 56.0421 82.5137 55.2471 81.1562 54.8282C80.9833 54.7495 80.7966 54.7057 80.6068 54.6995C80.4169 54.6932 80.2277 54.7246 80.05 54.7918C79.8724 54.8589 79.7098 54.9606 79.5715 55.0909C79.4333 55.2212 79.3223 55.3776 79.2448 55.551C79.1553 55.7188 79.1021 55.9035 79.0885 56.0932C79.0749 56.2829 79.1013 56.4733 79.1658 56.6521C79.2304 56.831 79.3317 56.9943 79.4633 57.1316C79.5949 57.2689 79.7539 57.377 79.9298 57.449C80.7151 57.7243 81.4073 58.2147 81.9273 58.8643C82.4474 59.514 82.7744 60.2967 82.8711 61.1232C82.8448 61.7605 82.5987 62.369 82.1745 62.8453C81.7503 63.3216 81.1742 63.6362 80.5442 63.7358C79.5519 63.945 78.5201 63.8594 77.5758 63.4897C76.4576 63.1256 75.4012 62.5936 74.4429 61.912C73.4944 61.3332 72.6844 60.5534 72.0699 59.6276C71.7026 59.1132 71.4624 58.519 71.369 57.8937C71.3296 57.4703 71.4484 57.0473 71.7026 56.7063C71.9567 56.3654 72.3281 56.1306 72.7452 56.0475C74.1173 55.6434 75.5872 55.7295 76.9028 56.2909C77.1537 56.4366 77.4488 56.4866 77.7336 56.4315C78.0184 56.3765 78.2736 56.2201 78.452 55.9914C78.7043 55.9455 78.9386 55.8293 79.1276 55.656C79.3167 55.4828 79.453 55.2596 79.5207 55.0122C79.6276 54.7106 79.1581 54.1197 76.8779 53.6083C74.926 52.6873 72.7108 52.4883 70.6261 53.0468C69.5992 53.3664 68.7002 54.0036 68.0586 54.8667C67.417 55.7298 67.0658 56.7743 67.0558 57.8498C66.9889 59.5157 67.4442 61.161 68.358 62.5555C69.1972 63.8037 70.2455 64.8926 71.4597 65.7773C73.1277 67.0032 75.0404 67.8551 77.0674 68.2749C78.5329 68.4939 80.0291 68.3708 81.439 67.9151C82.9163 67.4547 84.2008 66.5205 85.0938 65.2568C85.9868 63.9931 86.4386 62.4704 86.3793 60.9241Z" fill="#0B2715"/>
<path fill-rule="evenodd" clip-rule="evenodd" d="M110.751 35.7451C110.954 35.4233 111.021 35.0341 110.938 34.6627C110.855 34.2913 110.629 33.9679 110.308 33.7631C103.437 29.0267 96.2221 24.8088 88.724 21.1446C85.7151 19.6958 82.6552 18.2714 79.6368 16.8616L65.4615 11.8355C60.7867 10.1779 54.8399 8.87575 49.37 7.78506C45.7039 7.05672 42.0026 6.60731 38.2661 6.43682C38.0856 6.38967 37.897 6.38255 37.7135 6.41595C37.5299 6.44935 37.3559 6.52247 37.2036 6.63019C37.0512 6.73791 36.9243 6.87762 36.8317 7.03955C36.739 7.20147 36.6829 7.38169 36.6672 7.56759C36.6515 7.75349 36.6766 7.94057 36.7408 8.11574C36.805 8.2909 36.9067 8.44992 37.0388 8.58165C37.1709 8.71338 37.3302 8.81464 37.5056 8.87834C37.6809 8.94204 37.8681 8.96664 38.0539 8.95042C39.4293 9.14101 40.8133 9.54683 42.1996 9.82619C41.1844 10.1514 40.2961 10.7853 39.6584 11.6395C39.0208 12.4938 38.6657 13.5257 38.6426 14.5915C38.5757 16.2574 39.0311 17.9027 39.9449 19.2972C40.4425 19.9207 40.9882 20.4961 41.5821 21.0236C40.4273 20.8828 39.2559 20.9723 38.1359 21.2871C37.1154 21.6173 36.2232 22.2573 35.5833 23.1181C34.9434 23.9789 34.5877 25.0177 34.5656 26.0901C34.4987 27.756 34.954 29.4013 35.8679 30.7958C36.6839 32.0613 37.7384 33.1567 38.9695 34.0176L39.535 34.2181L42.089 35.6329C42.8783 36.0401 43.7078 36.3342 44.5773 36.5152C46.0418 36.7593 47.544 36.6357 48.9488 36.1554C50.4768 35.7083 51.8096 34.7591 52.7318 33.4613C53.6539 32.1635 54.1118 30.5927 54.0314 29.0027C53.7715 27.3638 52.9282 25.8741 51.6567 24.8079C52.2073 24.8393 52.7598 24.8074 53.3031 24.7127C54.74 24.2034 55.9755 23.2464 56.8279 21.9824C57.6802 20.7184 58.1043 19.2143 58.0378 17.6912C57.778 16.0524 56.9346 14.5626 55.6631 13.4965L63.9195 16.4239C65.2767 16.9052 75.4935 20.5277 77.7507 21.5827L82.3453 23.4665C81.9193 23.471 81.4969 23.5052 81.0782 23.5689C80.0513 23.8885 79.1523 24.5257 78.5107 25.3888C77.8691 26.252 77.518 27.2965 77.5079 28.3719C77.441 30.0379 77.8963 31.6831 78.8102 33.0776C79.6506 34.322 80.699 35.411 81.9118 36.2994L82.5527 36.5266C83.5041 37.1469 84.5152 37.6469 85.5859 38.0265C86.2126 38.3336 86.8661 38.5653 87.5463 38.7216C89.0117 38.9406 90.508 38.8175 91.9179 38.3618C93.3774 37.9001 94.6466 36.9752 95.5333 35.7273C96.4199 34.4794 96.8757 32.9764 96.8314 31.4463C96.7319 30.8306 96.5608 30.2287 96.3215 29.6527C100.308 31.5755 104.193 33.547 107.921 35.718C105.968 40.6276 103.641 45.277 101.451 50.0177C100.409 52.2372 99.4052 54.4701 98.5277 56.7054L95.0135 66.6168L91.9711 77.591C91.84 77.961 91.8611 78.3679 92.03 78.7222C92.1988 79.0766 92.5015 79.3493 92.8715 79.4805C93.2314 79.6081 93.6273 79.5875 93.9721 79.4233C94.3169 79.259 94.5823 78.9645 94.7099 78.6045L98.8699 68.069C100.007 65.4591 101.272 62.8516 102.447 60.2551C103.622 57.6586 104.762 54.9222 105.8 52.2346C107.78 46.8411 109.435 41.3339 110.756 35.7427M50.3017 29.3354C50.2545 29.9659 50.001 30.5634 49.5805 31.0355C49.16 31.5077 48.5957 31.8284 47.9749 31.948C46.9813 32.1355 45.9556 32.0504 45.0065 31.7019C43.8743 31.3372 42.8049 30.8006 41.8359 30.1109C40.895 29.5222 40.0868 28.7443 39.4628 27.8265C39.0955 27.312 38.8553 26.7178 38.762 26.0926C38.7224 25.8673 38.7282 25.6365 38.7789 25.4135C38.8297 25.1905 38.9244 24.9798 39.0575 24.7939C39.1906 24.6079 39.3595 24.4504 39.5542 24.3305C39.7489 24.2106 39.9656 24.1307 40.1916 24.0955C41.5621 23.6776 43.0369 23.764 44.3493 24.3389C44.6076 24.4761 44.9062 24.5174 45.1921 24.4557C45.478 24.394 45.733 24.2332 45.9118 24.0017C46.2457 24.1371 46.585 24.2574 46.9297 24.3626C46.899 24.62 46.9498 24.8805 47.0748 25.1075C47.1999 25.3346 47.3929 25.5167 47.6268 25.6284C49.4645 26.7892 50.2881 28.0574 50.3017 29.3354ZM54.3922 17.7991C54.3516 18.4319 54.1005 19.0328 53.6788 19.5063C53.2571 19.9797 52.6891 20.2985 52.0653 20.4117C51.073 20.6209 50.0412 20.5353 49.0969 20.1656C47.9647 19.8009 46.8953 19.2643 45.9263 18.5746C44.9778 17.9957 44.1678 17.216 43.5533 16.2902C43.1859 15.7757 42.9457 15.1815 42.8524 14.5563C42.8388 14.1508 42.9656 13.7531 43.2115 13.4304C43.4574 13.1077 43.8072 12.8798 44.2018 12.7854C45.5743 12.3847 47.0431 12.4707 48.3595 13.0288C48.655 13.1953 49.0045 13.2376 49.3312 13.1465C49.6579 13.0555 49.9351 12.8385 50.1019 12.5432C50.2947 12.3257 50.3953 12.0419 50.3826 11.7515L51.5137 12.1525C51.5137 12.1525 51.4335 12.3787 51.1404 12.487C51.057 12.656 51.0086 12.8401 50.9981 13.0282C50.9875 13.2163 51.0151 13.4046 51.079 13.5819C51.143 13.7591 51.2421 13.9216 51.3704 14.0596C51.4986 14.1976 51.6534 14.3083 51.8255 14.3851C52.5037 14.6955 53.0937 15.1704 53.5419 15.7666C53.9901 16.3627 54.2823 17.0614 54.3922 17.7991ZM91.0097 34.2202C90.0174 34.4294 88.9856 34.3438 88.0413 33.9741C86.9231 33.61 85.8667 33.0781 84.9084 32.3964C83.9599 31.8176 83.1499 31.0378 82.5354 30.112C82.168 29.5976 81.9279 29.0034 81.8345 28.3781C81.7924 27.9823 81.8888 27.5842 82.1073 27.2515C82.3259 26.9188 82.6531 26.6722 83.0331 26.5538C84.4052 26.1498 85.8752 26.2358 87.1908 26.7972C87.4905 26.966 87.8443 27.0111 88.1768 26.9229C88.5093 26.8347 88.7943 26.6201 88.971 26.325L89.8381 26.6324C89.7714 26.9227 89.8048 27.227 89.9329 27.4958C90.061 27.7647 90.2763 27.9824 90.5437 28.1134C91.329 28.3887 92.0212 28.8791 92.5412 29.5287C93.0613 30.1783 93.3883 30.961 93.485 31.7876C93.3961 32.4293 93.0843 33.0193 92.6042 33.4542C92.1241 33.8892 91.5063 34.1414 90.8589 34.1668L91.0097 34.2202ZM95.631 101.382C95.6082 100.36 95.4224 99.3488 95.0807 98.3857C94.5787 96.6099 93.5609 95.023 92.1562 93.8263C90.7576 92.6726 89.0609 91.9385 87.2624 91.7091C86.4359 91.6141 85.6099 91.59 84.7841 91.6367L83.2884 91.7854C83.1867 88.7999 82.8197 85.8292 82.1918 82.9086C81.4875 79.822 80.392 76.8379 78.932 74.0287C77.7672 72.0316 76.0673 70.3998 74.0241 69.3177C73.2802 69.0029 72.4623 68.905 71.6651 69.0353C70.8678 69.1657 70.1238 69.5191 69.5189 70.0545C68.7084 70.8323 68.1033 71.7988 67.7575 72.8676C67.2638 74.6193 67.0231 76.4353 67.0353 78.2561C67.0184 81.0087 67.2811 83.7628 67.8155 86.469C67.9738 87.4588 68.3097 88.4267 68.5434 89.4432C66.6557 89.9661 64.9531 91.0096 63.6304 92.4543C62.3076 93.899 61.4179 95.6867 61.0631 97.6131C60.6035 100.094 60.7765 102.647 61.5671 105.049C62.7007 108.364 64.5129 111.406 66.8882 113.981C67.0927 114.248 67.3939 114.423 67.7267 114.47C68.0596 114.516 68.3975 114.43 68.6673 114.23C68.9404 114.026 69.1241 113.724 69.18 113.388C69.2359 113.052 69.1597 112.707 68.9672 112.426C67.5127 109.738 66.508 106.83 65.9932 103.817C65.5978 102.009 65.4838 100.151 65.655 98.3076C65.7455 97.1275 66.1103 95.9849 66.7204 94.9708C67.3305 93.9566 68.169 93.099 69.1692 92.4661C69.6658 94.2974 70.0359 96.1262 70.5702 97.9708C70.6522 98.3047 70.8576 98.5951 71.145 98.7836C71.4325 98.9722 71.7807 99.0449 72.1196 98.987C72.4444 98.8892 72.7225 98.6769 72.9025 98.3895C73.0825 98.102 73.152 97.759 73.0982 97.4242C72.303 93.6624 71.6953 89.8634 71.2775 86.0413C71.0977 83.5641 71.128 81.0761 71.3681 78.604C71.4356 77.567 71.5608 76.5346 71.7431 75.5116C71.8358 74.9687 72.0212 74.4458 72.2912 73.9658C72.6105 74.2064 72.9133 74.4694 73.1997 74.7548C73.8052 75.2496 74.3471 75.828 74.7992 76.4679C76.3238 78.8311 77.5301 81.385 78.3871 84.0636C82.6597 96.91 77.4362 94.1666 84.0602 95.1148C84.828 95.2314 85.5792 95.427 86.3136 95.7016C87.3262 96.0776 88.2277 96.707 88.9358 97.5226C89.6226 98.2668 90.1383 99.1584 90.4297 100.132C91.455 103.869 91.5195 107.804 90.6173 111.572C90.574 111.924 90.6583 112.279 90.8548 112.574C91.0512 112.869 91.3469 113.083 91.6881 113.179C92.0293 113.274 92.3933 113.244 92.7141 113.093C93.0349 112.943 93.2911 112.683 93.4363 112.36C94.9101 108.889 95.657 105.153 95.631 101.382Z" fill="#0B2715"/>
</g>
<defs>
<clipPath id="clip0_25_640">
<rect width="96" height="96" fill="white" transform="translate(32.0817) rotate(19.5229)"/>
</clipPath>
</defs>
</svg>
