<svg width="30" height="30" viewBox="0 0 30 30" fill="none" xmlns="http://www.w3.org/2000/svg">
<path fill-rule="evenodd" clip-rule="evenodd" d="M19.6063 4.78931C20.6999 3.52182 21.4371 1.75647 21.2354 0C19.6594 0.06 17.7528 1.00672 16.6228 2.27271C15.6081 3.39619 14.7223 5.19135 14.9604 6.91333C16.7184 7.04382 18.5127 6.05828 19.6063 4.78931ZM23.5485 15.9375C23.5925 20.4779 27.7045 21.9883 27.75 22.0078C27.7166 22.1143 27.0932 24.1599 25.584 26.2749C24.2781 28.1019 22.9236 29.9214 20.7894 29.9604C18.6932 29.9979 18.0182 28.7695 15.6202 28.7695C13.2237 28.7695 12.4744 29.9213 10.4904 29.9978C8.43059 30.0713 6.86071 28.0212 5.54565 26.2002C2.85485 22.4757 0.799598 15.6751 3.56016 11.0852C4.93135 8.80674 7.38097 7.36168 10.0414 7.32568C12.0633 7.28818 13.973 8.62939 15.2091 8.62939C16.4453 8.62939 18.766 7.01691 21.205 7.25391C22.2258 7.29441 25.0926 7.64828 26.9324 10.2297C26.7838 10.3182 23.5121 12.1426 23.5485 15.9375Z" fill="#0B2715"/>
</svg>
