<svg width="78" height="78" viewBox="0 0 78 78" fill="none" xmlns="http://www.w3.org/2000/svg">
<g clip-path="url(#clip0_25_646)">
<path d="M77.9058 47.437C78.2214 37.966 77.7322 28.4852 76.4433 19.097C76.4954 18.4263 76.4954 17.7526 76.4433 17.082C75.9915 14.9077 69.4655 13.8352 66.7063 13.5752C66.4525 13.5476 66.198 13.6207 65.9974 13.7787C65.7969 13.9367 65.6663 14.167 65.6338 14.4202C65.4713 16.5652 68.8838 14.4202 74.1098 17.6702C74.0492 19.9768 74.2344 22.2832 74.6623 24.5505C75.4423 31.8207 75.0198 36.855 74.6623 56.1697C70.8039 55.3286 66.8513 55.0008 62.907 55.1947C55.5547 55.1443 48.3743 57.4169 42.3898 61.6882C44.5998 53.118 49.9883 50.8137 57.5835 48.087C58.4448 47.8172 59.345 47.697 60.2485 47.7295C60.4274 48.1237 60.7388 48.4428 61.1284 48.6313C61.5181 48.8199 61.9615 48.8661 62.3816 48.7618C62.8017 48.6576 63.1721 48.4095 63.4284 48.0606C63.6847 47.7117 63.8107 47.2841 63.7845 46.852C62.5495 14.0302 63.7845 9.42174 63.2645 6.36999C62.7445 3.31824 60.5378 2.95749 57.4535 2.50249C53.6652 2.10447 49.8394 2.72866 46.3741 4.31016C42.9087 5.89165 39.9304 8.37269 37.7488 11.4952C37.4888 12.0477 35.9613 15.4245 35.8313 15.782C33.6145 14.0916 31.0559 12.9049 28.3335 12.3045C21.3401 10.7539 14.0188 11.9154 7.84878 15.5545C6.64675 16.3365 5.61769 17.3565 4.82508 18.5516C4.03246 19.7466 3.49311 21.0914 3.24028 22.503C0.380284 34.06 -1.33897 37.4725 1.32278 62.0457C1.32278 63.0532 1.32278 64.6132 2.29778 65.5525C2.51631 65.7349 2.77211 65.8672 3.04722 65.9402C3.32233 66.0132 3.61009 66.0251 3.89028 65.975V68.4742C4.31278 74.3177 12.0705 70.7492 20.6083 70.0342C27.6835 69.4817 28.4635 71.006 34.7295 74.6427C37.3086 75.6118 40.1031 75.859 42.8123 75.3577C45.0329 75.0229 47.1388 74.1529 48.9483 72.8227C70.343 57.0797 69.5955 75.4877 74.5973 62.2732C74.8248 61.6666 74.9656 61.0382 75.0198 60.3882C75.2716 60.5522 75.5619 60.6474 75.8619 60.6644C76.1619 60.6815 76.4611 60.6197 76.7299 60.4854C76.9987 60.351 77.2276 60.1486 77.394 59.8984C77.5603 59.6482 77.6583 59.3588 77.6783 59.059C77.9794 55.1872 78.0553 51.3132 77.9058 47.437ZM38.5613 17.5045C48.295 -0.806007 60.3753 7.24749 60.8953 7.76749C61.1553 8.74249 59.6928 30.7547 59.6278 32.7665L59.9203 43.966C56.3197 44.3546 52.8401 45.4912 49.7043 47.3028C46.5685 49.1145 43.8458 51.5612 41.7105 54.4862C40.0855 57.278 40.638 57.5705 40.3455 55.7212C40.2805 55.3962 38.428 17.7677 38.558 17.5077M3.50028 31.5932C4.44278 27.9922 5.60953 18.837 8.72628 17.797C17.8165 14.7452 26.9068 13.9977 35.3438 18.6095C36.348 21.3947 36.7998 24.349 36.6763 27.3097C36.6763 33.9625 36.8713 54.0572 37.6513 60.099C32.4833 57.744 26.8359 56.631 21.1608 56.849C16.6714 57.2522 12.2815 58.4057 8.17378 60.2615C7.78378 60.2615 5.96378 62.1107 4.66703 62.8257C4.66703 62.3707 4.30953 61.8507 4.27703 61.5907C3.23703 52.7605 1.71278 41.1385 3.49703 31.5932M70.2423 63.5082C60.892 59.7707 53.4593 65.065 46.8358 69.8035C45.4201 70.7503 43.8257 71.3973 42.1505 71.7047C40.4754 72.0121 38.7551 71.9734 37.0955 71.591C24.531 62.6957 19.6625 66.9467 8.30053 68.666C7.71553 68.666 7.26053 68.9585 6.96803 68.666C6.67553 68.3735 6.35053 66.495 5.60303 65.4225C7.00053 64.7075 8.85303 63.57 9.30803 63.44C14.079 61.9482 19.4675 58.4415 31.1545 61.6882C39.7898 63.9307 39.3348 67.6942 42.2565 66.105C46.6083 63.765 52.8743 56.7547 72.4815 59.124C72.2872 59.3622 72.1835 59.6616 72.189 59.969C70.2715 63.4107 70.369 63.1832 70.239 63.505" fill="#0B2715"/>
<path d="M11.8429 29.224C15.0896 28.769 14.8296 27.1765 19.1131 27.1765C21.5026 27.3506 23.8597 27.8312 26.1266 28.6065C26.7441 28.379 27.1991 28.119 27.1991 27.5015C27.1991 26.1072 25.2491 24.6805 22.2949 24.258C13.7571 22.6655 12.9446 26.7572 11.3229 27.5047C11.1744 27.627 11.0654 27.7905 11.0096 27.9745C10.9538 28.1586 10.9537 28.355 11.0093 28.5391C11.0649 28.7233 11.1737 28.8868 11.322 29.0093C11.4703 29.1317 11.6515 29.2075 11.8429 29.2272M11.8429 40.6835C15.0896 40.2285 14.8296 38.6392 19.1131 38.6392C21.5019 38.8115 23.8581 39.2925 26.1266 40.0692C26.7441 39.8742 27.1991 39.5817 27.1991 38.9642C27.1991 37.5667 25.2491 36.1692 22.2949 35.7175C13.7571 34.125 12.9446 38.1875 11.3229 38.9642C11.1631 38.9478 11.0018 38.9711 10.8532 39.032C10.7046 39.0929 10.5734 39.1896 10.4711 39.3134C10.3689 39.4373 10.2988 39.5845 10.2672 39.7419C10.2355 39.8993 10.2432 40.0622 10.2896 40.2159C10.3361 40.3696 10.4197 40.5095 10.5332 40.6231C10.6467 40.7368 10.7865 40.8206 10.9402 40.8672C11.0939 40.9138 11.2567 40.9217 11.4142 40.8902C11.5716 40.8587 11.7189 40.7888 11.8429 40.6867M11.8429 52.273C15.0896 51.818 14.8296 50.2287 19.1131 50.2287C21.5007 50.4165 23.8561 50.8967 26.1266 51.6587C26.7441 51.4637 27.1991 51.1712 27.1991 50.5862C27.1991 49.1562 25.2491 47.7587 22.2949 47.3395C13.7571 45.747 12.9446 49.842 11.3229 50.5862C11.1189 50.5563 10.9107 50.592 10.7283 50.6882C10.546 50.7844 10.399 50.9361 10.3085 51.1213C10.218 51.3066 10.1888 51.5158 10.2251 51.7187C10.2614 51.9217 10.3613 52.1078 10.5104 52.2502C10.6881 52.4224 10.9247 52.5206 11.1721 52.5248C11.4196 52.529 11.6593 52.439 11.8429 52.273Z" fill="#0B2715"/>
</g>
<defs>
<clipPath id="clip0_25_646">
<rect width="78" height="78" fill="white"/>
</clipPath>
</defs>
</svg>
