<svg width="76" height="76" viewBox="0 0 76 76" fill="none" xmlns="http://www.w3.org/2000/svg">
<g clip-path="url(#clip0_25_649)">
<path fill-rule="evenodd" clip-rule="evenodd" d="M3.26782 20.9222C4.97782 20.9222 3.99615 19.2122 3.86949 12.027C3.86949 6.6785 3.55282 4.74683 9.56632 3.86333C12.9547 3.38833 16.6248 3.86333 20.01 3.705C20.3076 3.6575 20.5784 3.50548 20.774 3.27622C20.9696 3.04697 21.077 2.7555 21.077 2.45416C21.077 2.15283 20.9696 1.86136 20.774 1.63211C20.5784 1.40285 20.3076 1.25083 20.01 1.20333C14.0282 0.728331 7.47632 -2.05834 1.52615 3.19833C-1.86218 6.365 1.52615 16.1437 2.09615 19.9722C2.12807 20.2524 2.26871 20.509 2.48782 20.6866C2.70693 20.8643 2.987 20.9489 3.26782 20.9222ZM20.0132 72.3267C16.6248 72.1683 12.9515 72.6433 9.56315 72.1683C3.52115 71.2817 3.77449 69.3183 3.86949 63.9983C3.86949 56.848 4.97782 55.2647 3.26782 55.1063C2.97887 55.0888 2.69452 55.185 2.47556 55.3743C2.25661 55.5637 2.12043 55.8312 2.09615 56.1197C1.39949 60.173 -1.89385 69.825 1.52615 72.8302C7.44782 77.9918 13.9965 75.2368 20.0417 74.7618C20.3064 74.6836 20.5384 74.5209 20.7022 74.2987C20.866 74.0764 20.9527 73.8067 20.9491 73.5307C20.9456 73.2546 20.8519 72.9873 20.6823 72.7693C20.5128 72.5514 20.2767 72.3949 20.01 72.3235M55.8408 3.705C59.2292 3.86333 62.8993 3.38833 66.2845 3.86333C72.3011 4.75 72.0795 6.68166 71.9845 12.027C71.9845 19.2153 70.8762 20.767 72.5862 20.9222C72.7301 20.9351 72.8753 20.919 73.0129 20.8747C73.1505 20.8303 73.2777 20.7588 73.3871 20.6642C73.4964 20.5696 73.5856 20.454 73.6493 20.3242C73.713 20.1945 73.7499 20.0532 73.7578 19.9088C74.4545 15.8555 77.7447 6.36183 74.3278 3.19833C68.4062 -2.02667 61.8543 0.728331 55.8092 1.20333C55.5121 1.25446 55.243 1.40986 55.0502 1.64161C54.8574 1.87335 54.7536 2.16626 54.7574 2.46768C54.7612 2.7691 54.8724 3.05928 55.071 3.28607C55.2696 3.51287 55.5425 3.66141 55.8408 3.705ZM72.7413 55.1063C71.0313 55.2647 72.013 56.8163 72.1396 64.0015C72.1396 69.3183 72.488 71.2817 66.4428 72.1652C63.0545 72.6402 59.3843 72.1652 55.9992 72.3235C55.7016 72.371 55.4307 72.523 55.2351 72.7523C55.0396 72.9815 54.9321 73.273 54.9321 73.5743C54.9321 73.8757 55.0396 74.1671 55.2351 74.3964C55.4307 74.6256 55.7016 74.7777 55.9992 74.8252C62.0126 75.3002 68.6595 77.9918 74.5146 72.8935C77.903 69.7268 74.5146 60.2332 73.9446 56.1197C73.9327 55.9739 73.892 55.832 73.825 55.702C73.7579 55.5721 73.6658 55.4567 73.5539 55.3625C73.4421 55.2683 73.3127 55.1972 73.1732 55.1532C73.0338 55.1092 72.887 55.0933 72.7413 55.1063ZM31.5968 25.3523C30.902 24.8014 30.051 24.4839 29.1652 24.445C28.2793 24.4061 27.4038 24.6477 26.6633 25.1355C25.9228 25.6233 25.3552 26.3324 25.0413 27.1617C24.7274 27.9909 24.6833 28.8981 24.9152 29.754C24.8564 30.0353 24.9117 30.3285 25.0691 30.569C25.2265 30.8096 25.473 30.9777 25.7543 31.0365C26.0357 31.0953 26.3289 31.0399 26.5694 30.8825C26.8099 30.7252 26.978 30.4787 27.0368 30.1973C27.0368 29.9757 30.0135 27.6957 30.7102 27.7907C31.0296 27.8924 31.376 27.8666 31.6769 27.7187C31.9777 27.5708 32.2097 27.3123 32.3243 26.9973C32.4389 26.6822 32.4271 26.335 32.2915 26.0284C32.1559 25.7218 31.907 25.4795 31.5968 25.3523ZM37.927 26.999L41.5022 25.6373C41.8666 25.4883 42.2505 25.3923 42.6422 25.3523C42.9458 25.4605 43.2795 25.4466 43.5732 25.3137C43.8668 25.1807 44.0974 24.939 44.2164 24.6395C44.3354 24.3399 44.3335 24.0059 44.2112 23.7077C44.0888 23.4095 43.8556 23.1703 43.5605 23.0407C42.9625 22.4682 42.2163 22.0745 41.4061 21.9043C40.596 21.7341 39.7544 21.7941 38.9766 22.0775C38.1989 22.361 37.516 22.8565 37.0053 23.508C36.4946 24.1595 36.1766 24.941 36.0872 25.764C35.9423 26.0075 35.8962 26.2972 35.9584 26.5737C36.0205 26.8501 36.1861 27.0923 36.4213 27.2504C36.6564 27.4085 36.9431 27.4705 37.2226 27.4238C37.502 27.377 37.753 27.225 37.9238 26.999M41.0905 34.8492C41.1241 34.5216 41.0262 34.1942 40.8183 33.9388C40.6105 33.6834 40.3097 33.5211 39.9822 33.4875C39.6546 33.4539 39.3271 33.5518 39.0718 33.7597C38.8164 33.9675 38.6541 34.2683 38.6205 34.5958C38.5178 34.9158 38.3492 35.2108 38.1256 35.4617C37.902 35.7125 37.6283 35.9138 37.3222 36.0525C35.6757 36.2743 34.0005 35.9986 32.512 35.2608C32.4253 35.1307 32.312 35.0203 32.1796 34.9371C32.0472 34.8538 31.8987 34.7995 31.7438 34.7777C31.5889 34.756 31.4312 34.7672 31.281 34.8108C31.1307 34.8543 30.9914 34.9292 30.8722 35.0304C30.753 35.1316 30.6565 35.2569 30.5892 35.3981C30.5219 35.5393 30.4852 35.6931 30.4815 35.8495C30.4779 36.0058 30.5074 36.1612 30.5681 36.3053C30.6288 36.4495 30.7193 36.5792 30.8337 36.6858C33.7153 42.731 41.4705 40.9577 41.0937 34.8492" fill="#0B2715"/>
<path fill-rule="evenodd" clip-rule="evenodd" d="M57.4874 62.6367C57.652 62.6367 57.8149 62.6039 57.9667 62.54C58.1184 62.4762 58.2558 62.3827 58.3709 62.2649C58.4859 62.1472 58.5763 62.0077 58.6367 61.8545C58.697 61.7014 58.7262 61.5377 58.7224 61.3732C59.5457 51.2145 55.809 45.5462 50.1407 41.591C52.215 39.6356 53.7415 37.1714 54.5683 34.4432C55.3952 31.7151 55.4936 28.8181 54.8539 26.0401C54.2142 23.2621 52.8585 20.6999 50.9217 18.6082C48.9849 16.5165 46.5344 14.9682 43.8137 14.117C26.5934 7.94835 8.80304 23.9938 19.5349 39.976C21.0973 42.3119 23.1506 44.2788 25.5515 45.7393C20.2315 49.3145 16.9699 53.8397 17.1599 63.7482C17.1792 64.0531 17.3081 64.3407 17.5227 64.5581C17.7374 64.7755 18.0234 64.908 18.3281 64.9311C18.6327 64.9542 18.9355 64.8665 19.1805 64.684C19.4255 64.5016 19.5964 64.2367 19.6615 63.9382C20.9247 57.6017 23.8654 51.7203 28.1767 46.9078C29.7116 47.5501 31.3579 47.8837 33.0217 47.8895C33.1807 47.9167 33.3438 47.9088 33.4995 47.8664C33.6552 47.824 33.7997 47.7482 33.923 47.6441C34.0464 47.5401 34.1455 47.4104 34.2135 47.2641C34.2815 47.1178 34.3167 46.9584 34.3167 46.797C34.3167 46.6357 34.2815 46.4763 34.2135 46.3299C34.1455 46.1836 34.0464 46.0539 33.923 45.9499C33.7997 45.8458 33.6552 45.77 33.4995 45.7276C33.3438 45.6852 33.1807 45.6773 33.0217 45.7045C31.4137 45.5716 29.8505 45.108 28.43 44.3428C25.0497 42.7394 22.4009 39.9167 21.0153 36.4413C19.6297 32.9659 19.6099 29.0951 20.9599 25.6057C25.4882 16.112 41.1537 14.0853 48.4022 21.869C55.6507 29.6527 50.1439 42.3827 39.7604 44.346C39.4728 44.4404 39.2286 44.6347 39.0719 44.8937C38.9152 45.1526 38.8564 45.4591 38.9061 45.7577C38.9559 46.0562 39.1109 46.3271 39.3431 46.5212C39.5753 46.7154 39.8694 46.8199 40.172 46.816C43.1114 46.387 45.891 45.2093 48.2439 43.396C50.8769 46.5803 52.9538 50.186 54.3872 54.0613C56.9174 60.743 55.5557 62.6683 57.4874 62.6367Z" fill="#0B2715"/>
</g>
<defs>
<clipPath id="clip0_25_649">
<rect width="76" height="76" fill="white"/>
</clipPath>
</defs>
</svg>
