<svg width="40" height="40" viewBox="0 0 40 40" fill="none" xmlns="http://www.w3.org/2000/svg">
<path d="M25.4 3.3335H18.9097C15.9693 3.33348 13.6403 3.33345 11.8176 3.5795C9.94168 3.83271 8.42337 4.36623 7.22598 5.56843C6.02862 6.77061 5.49722 8.29503 5.24502 10.1784C4.99995 12.0085 4.99998 14.3469 5 17.299V27.0283C5 29.5418 6.53325 31.6958 8.71195 32.5988C8.59982 31.0832 8.5999 28.9563 8.6 27.1868V18.9962V18.8375C8.59988 16.7013 8.59977 14.8609 8.79713 13.387C9.00865 11.8075 9.48565 10.2934 10.7088 9.06526C11.932 7.83715 13.4401 7.35825 15.0133 7.14588C16.4813 6.94773 18.3145 6.94783 20.442 6.94795L20.6 6.94796H25.4L25.558 6.94795C27.6855 6.94783 29.5147 6.94773 30.9827 7.14588C30.1045 4.91315 27.936 3.3335 25.4 3.3335Z" fill="black" fill-opacity="0.3"/>
<path d="M11 18.9955C11 14.4518 11 12.18 12.4059 10.7685C13.8118 9.35693 16.0745 9.35693 20.6 9.35693H25.4C29.9255 9.35693 32.1882 9.35693 33.5942 10.7685C35 12.18 35 14.4518 35 18.9955V27.0277C35 31.5713 35 33.8432 33.5942 35.2547C32.1882 36.6662 29.9255 36.6662 25.4 36.6662H20.6C16.0745 36.6662 13.8118 36.6662 12.4059 35.2547C11 33.8432 11 31.5713 11 27.0277V18.9955Z" fill="black" fill-opacity="0.3"/>
</svg>
