<svg width="30" height="30" viewBox="0 0 30 30" fill="none" xmlns="http://www.w3.org/2000/svg">
<path d="M1.71231 0H28.2877C29.1885 0 30 0.811473 30 1.71231V28.2877C30 29.1885 29.1885 30 28.2877 30H1.71231C0.811473 30 0 29.1885 0 28.2877V1.71231C0 0.811473 0.811473 0 1.71231 0ZM21.3044 16.8449H25.4483L25.6284 12.8812H21.3044V9.95388C21.3044 8.82819 21.5293 8.19689 22.9706 8.19689H25.4929L25.5837 4.50274C25.5837 4.50274 24.4581 4.32257 22.8366 4.32257C18.8729 4.32257 17.1159 6.80023 17.1159 9.45806V12.8812H14.1885V16.8449H17.1159V27.8351H21.3044V16.8449Z" fill="#0B2715"/>
</svg>
