<svg width="30" height="30" viewBox="0 0 30 30" fill="none" xmlns="http://www.w3.org/2000/svg">
<g clip-path="url(#clip0_25_712)">
<path d="M19.8 15C19.8 15.9494 19.5185 16.8774 18.9911 17.6667C18.4636 18.4561 17.714 19.0713 16.8369 19.4346C15.9598 19.7979 14.9947 19.893 14.0636 19.7078C13.1325 19.5226 12.2772 19.0654 11.6059 18.3941C10.9346 17.7228 10.4774 16.8675 10.2922 15.9364C10.107 15.0053 10.2021 14.0402 10.5654 13.1631C10.9287 12.286 11.5439 11.5364 12.3333 11.0089C13.1226 10.4815 14.0507 10.2 15 10.2C16.2726 10.2015 17.4926 10.7076 18.3925 11.6075C19.2924 12.5074 19.7985 13.7274 19.8 15ZM30 8.4V21.6C29.9975 23.827 29.1117 25.9622 27.5369 27.5369C25.9622 29.1117 23.827 29.9975 21.6 30H8.4C6.17296 29.9975 4.03785 29.1117 2.46309 27.5369C0.88833 25.9622 0.00252221 23.827 0 21.6V8.4C0.00252221 6.17296 0.88833 4.03785 2.46309 2.46309C4.03785 0.88833 6.17296 0.00252221 8.4 0H21.6C23.827 0.00252221 25.9622 0.88833 27.5369 2.46309C29.1117 4.03785 29.9975 6.17296 30 8.4ZM22.2 15C22.2 13.576 21.7777 12.1839 20.9866 10.9999C20.1954 9.81586 19.0709 8.89302 17.7553 8.34807C16.4397 7.80312 14.992 7.66053 13.5954 7.93835C12.1987 8.21616 10.9158 8.90189 9.90883 9.90883C8.90189 10.9158 8.21616 12.1987 7.93835 13.5954C7.66053 14.992 7.80312 16.4397 8.34807 17.7553C8.89302 19.0709 9.81586 20.1954 10.9999 20.9866C12.1839 21.7777 13.576 22.2 15 22.2C16.9089 22.1978 18.739 21.4386 20.0888 20.0888C21.4386 18.739 22.1978 16.9089 22.2 15ZM24.6 7.2C24.6 6.84399 24.4944 6.49598 24.2966 6.19997C24.0989 5.90397 23.8177 5.67325 23.4888 5.53702C23.1599 5.40078 22.798 5.36513 22.4488 5.43459C22.0997 5.50404 21.7789 5.67547 21.5272 5.92721C21.2755 6.17894 21.104 6.49967 21.0346 6.84884C20.9651 7.198 21.0008 7.55992 21.137 7.88883C21.2733 8.21774 21.504 8.49886 21.8 8.69665C22.096 8.89443 22.444 9 22.8 9C23.2774 9 23.7352 8.81036 24.0728 8.47279C24.4104 8.13523 24.6 7.67739 24.6 7.2Z" fill="#0B2715"/>
</g>
<defs>
<clipPath id="clip0_25_712">
<rect width="30" height="30" fill="white"/>
</clipPath>
</defs>
</svg>
