<svg width="30" height="30" viewBox="0 0 30 30" fill="none" xmlns="http://www.w3.org/2000/svg">
<g clip-path="url(#clip0_25_702)">
<path d="M27.6562 0H2.34375C1.04883 0 0 1.04883 0 2.34375V27.6562C0 28.9512 1.04883 30 2.34375 30H27.6562C28.9512 30 30 28.9512 30 27.6562V2.34375C30 1.04883 28.9512 0 27.6562 0ZM10.8047 21.2754H7.88086V11.918H10.8047V21.2754ZM9.26367 10.7461H9.24023C8.17969 10.7461 7.49414 10.0313 7.49414 9.12305C7.49414 8.19727 8.20312 7.5 9.28125 7.5C10.3594 7.5 11.0215 8.19727 11.0449 9.12305C11.0508 10.0254 10.3652 10.7461 9.26367 10.7461ZM22.5 21.2754H19.1836V16.4355C19.1836 15.1699 18.668 14.3027 17.5254 14.3027C16.6523 14.3027 16.166 14.8887 15.9434 15.4512C15.8613 15.6504 15.873 15.9316 15.873 16.2188V21.2754H12.5859C12.5859 21.2754 12.627 12.6973 12.5859 11.918H15.873V13.3887C16.0664 12.7441 17.1152 11.8301 18.791 11.8301C20.8711 11.8301 22.5 13.1777 22.5 16.0723V21.2754Z" fill="#0B2715"/>
</g>
<defs>
<clipPath id="clip0_25_702">
<rect width="30" height="30" fill="white"/>
</clipPath>
</defs>
</svg>
