<svg width="59" height="59" viewBox="0 0 59 59" fill="none" xmlns="http://www.w3.org/2000/svg">
<path d="M29.4998 27.0417C31.4447 27.0417 33.3459 26.465 34.9629 25.3845C36.58 24.304 37.8404 22.7682 38.5847 20.9714C39.3289 19.1746 39.5236 17.1974 39.1442 15.2899C38.7648 13.3825 37.8283 11.6303 36.4531 10.2551C35.0778 8.8799 33.3257 7.94337 31.4182 7.56395C29.5107 7.18453 27.5336 7.37926 25.7368 8.12352C23.94 8.86778 22.4042 10.1281 21.3237 11.7452C20.2432 13.3623 19.6665 15.2635 19.6665 17.2083C19.6665 19.8163 20.7025 22.3174 22.5466 24.1616C24.3907 26.0057 26.8919 27.0417 29.4998 27.0417Z" fill="white"/>
<path d="M44.2498 51.6252C44.9018 51.6252 45.5271 51.3662 45.9881 50.9051C46.4492 50.4441 46.7082 49.8188 46.7082 49.1668C46.7082 44.6029 44.8952 40.2259 41.668 36.9987C38.4408 33.7715 34.0638 31.9585 29.4998 31.9585C24.9359 31.9585 20.5589 33.7715 17.3317 36.9987C14.1045 40.2259 12.2915 44.6029 12.2915 49.1668C12.2915 49.8188 12.5505 50.4441 13.0115 50.9051C13.4726 51.3662 14.0978 51.6252 14.7498 51.6252H44.2498Z" fill="white"/>
</svg>
