<svg width="30" height="30" viewBox="0 0 30 30" fill="none" xmlns="http://www.w3.org/2000/svg">
<path d="M2.8125 3.48584V26.5132C2.81265 26.5631 2.82756 26.6119 2.85533 26.6535C2.88311 26.695 2.92253 26.7274 2.96865 26.7466C3.01477 26.7658 3.06553 26.771 3.11458 26.7615C3.16362 26.7519 3.20876 26.7281 3.24434 26.6931L15.2344 15.0001L3.24434 3.30595C3.20876 3.27088 3.16362 3.24709 3.11458 3.23756C3.06553 3.22804 3.01477 3.23321 2.96865 3.25242C2.92253 3.27163 2.88311 3.30403 2.85533 3.34555C2.82756 3.38708 2.81265 3.43588 2.8125 3.48584Z" fill="#0B2715"/>
<path d="M20.2619 10.1952L5.22794 1.91243L5.21857 1.90716C4.95958 1.76653 4.71349 2.11692 4.9256 2.32083L16.7106 13.5896L20.2619 10.1952Z" fill="#0B2715"/>
<path d="M4.92677 27.6791C4.71349 27.883 4.95959 28.2334 5.21974 28.0928L5.22912 28.0875L20.2619 19.8047L16.7106 16.4092L4.92677 27.6791Z" fill="#0B2715"/>
<path d="M26.3308 13.5353L22.1325 11.2231L18.1851 15.0001L22.1325 18.7753L26.3308 16.4649C27.4728 15.8339 27.4728 14.1663 26.3308 13.5353Z" fill="#0B2715"/>
</svg>
